<svg version="1" xmlns="http://www.w3.org/2000/svg" width="726.667" height="726.667" viewBox="0 0 545.000000 545.000000"><path d="M429.6 40.2c-5.9 6-11.1 15.6-14.7 27.3l-2.4 7.7-8.4-.6c-7.2-.5-12.8-1.2-24.1-3.1-6.2-1-8.9-1.4-15-2-3.6-.4-7.8-.9-9.5-1.2-5.9-1-47.1-1.1-53-.2-8.9 1.4-21.2 4.7-26.4 7.1-13.8 6.2-38 28.3-51.4 46.8-4.2 5.8-8.4 11.5-9.4 12.7-1.2 1.4-10.2 5.5-25.3 11.3-15.4 6-24.5 10-26.4 11.8-6.8 6.5-7 14.9-.4 17.6 5.2 2.2 20.6 4.4 31.6 4.5 4 .1 4.2.2 3.1 2.2-.6 1.2-1.3 5.3-1.4 9.2-.4 7.9.5 10.6 5.5 15.4l3.2 3.1-8.7 14.9c-11.9 20-12.1 20.5-18 31.3-11.6 21.2-12.6 23.4-13.1 29-1 11 4.7 16.2 16.9 15.7 7.5-.4 8.7.5 8.1 6.2-.1 1.5-.5 5.6-.9 9.3-.3 3.7-1 8-1.4 9.5-.4 1.5-.7 4.5-.7 6.6.2 3.7.1 3.7-3.9 3.8-15.6.3-26.3 4-38 12.9-2.7 2.2-5.7 4.7-6.6 5.7-.9 1-9.6 9.4-19.4 18.8-9.8 9.3-20 19-22.5 21.5-9.5 9.2-14 13-15.4 13-3.4 0-4.1-1.6-8.2-21-.3-1.4-.7-3.6-1-5-.3-1.4-.7-3.1-.8-3.9-.6-3.3-3.6-4-18.5-4-18.9 0-24.5 1.5-25.7 7-.9 4.2-1.1 21.9-.3 26.2.4 2.3 1 6 1.3 8.2 1.3 8.1 1.7 9.6 3.8 15.2 2.4 6.5 5 9.2 11.6 12.3 8.2 3.9 21.4 1.5 35.5-6.3 5.3-3 9.9-5.9 10.7-6.7.3-.3 2.3-1.8 4.5-3.5 8.3-6.2 21.7-20.6 40-43 13.3-16.2 21.9-26 25.1-28.6 4.7-3.7 13.3-6.9 20.6-7.6l5.8-.6-.9 2.6c-.6 1.4-.8 3.6-.6 4.8.5 2.6 4.8 7.3 8.7 9.6 4.1 2.5 4.3 8.4.4 14.7-2.7 4.3-3.1 5.8-3.1 12 0 4.9.6 8.1 1.9 10.5 2 3.8 6.8 8.6 10.6 10.6 5.6 2.9 25.4 7.1 42.5 9 2.8.3 6.6.7 8.5 1 1.9.2 6 .4 9 .5l5.5.1-3.9 2.2c-10.1 5.7-16.7 10.7-23.7 17.8l-7.5 7.6-14.5.7c-16.7.7-34.4 1.7-34.5 2 0 0-8.2 19.1-18.1 42.3-10.8 25.2-17.6 42.3-16.9 42.5.6.2 46.3.4 101.6.3h100.4l10.3-14.5c10.6-15 11.7-17.4 12.8-27.5.7-6.3 1-9.1 2-16.6l.6-4.6 6.2-1.2c3.4-.7 7.9-1.6 10-2.1 3.9-.8 4.7-.2 32.7 23.4 1.4 1.1 6.4 5.3 11.1 9.3 10.9 9.2 31.9 21.7 33.4 19.8.8-1 29.4-31 38.3-40.1.9-1 1.2-15.2 1-66.7l-.3-65.5-7 2.1c-8.8 2.8-11.5 2.5-13.7-1.4-1-1.6-4-4.3-6.8-6.1l-5-3.1 3.9-3.3c6.2-5.4 7.2-9.2 6.7-25.7-.5-16.8-3.3-29.3-9.5-42.2l-4-8.2 2.5-8.9c2.1-7.8 3-11.8 4.8-22.6 1.8-10.9 2.5-37.4 1.1-47.5-1.8-13.5-2.7-19.1-4.1-26.1-2.1-9.9-1.9-9-3.3-14.2-.7-2.5-1.5-5.2-1.7-6-.9-3.8-4.7-14-7-18.9-4.4-9.3-16.3-20.2-29.6-27.1l-6.6-3.4 1.9-2.4c2.4-3.1 3.4-8.7 2.1-11.7-.6-1.3-2.9-3.3-5.2-4.5-3.4-1.8-4-2.5-4-5.3 0-6.9 3.7-18.1 8.7-26 1.3-2 2.1-3.7 1.7-3.7-.3 0-2.9 2.4-5.8 5.2z"/></svg>